<?xml version="1.0" encoding="utf-8"?>
<!-- Generator: Adobe Illustrator 26.2.1, SVG Export Plug-In . SVG Version: 6.00 Build 0)  -->
<svg version="1.1" id="Layer_1" xmlns="http://www.w3.org/2000/svg" xmlns:xlink="http://www.w3.org/1999/xlink" x="0px" y="0px"
	 viewBox="0 0 850.39 566.93" style="enable-background:new 0 0 850.39 566.93;" xml:space="preserve">
<path d="M602.36,226.77v113.39h35.43c19.57,0,35.43-15.86,35.43-35.43v-77.95H602.36z M637.79,325.98h-21.26v-85.04h21.26
	c11.74,0,21.26,9.52,21.26,21.26v42.52C659.05,316.47,649.54,325.98,637.79,325.98z M106.3,226.77v113.39H92.13v-49.61l-7.09,0
	c-11.74,0-21.26,9.52-21.26,21.26v28.35H49.61V226.77h14.17v49.61h28.35v-49.61H106.3z M177.17,226.77v113.39h-56.69V226.77h14.17
	v77.95c0,11.74,9.52,21.26,21.26,21.26h7.09v-99.21H177.17z M276.38,340.16h-14.17V262.2c0-11.74-9.52-21.26-21.26-21.26h0v99.21
	h-14.17V262.2c0-11.74-9.52-21.26-21.26-21.26h0v99.21h-14.17V226.77h0v0h85.04L276.38,340.16z M290.55,226.77v113.39h14.17v-49.61
	h28.35v49.61h14.17V226.77H290.55z M333.07,276.38h-28.35v-35.43h7.09c11.74,0,21.26,9.52,21.26,21.26V276.38z M588.19,226.77
	v113.39h-14.17V226.77H588.19z M701.57,269.29v28.35H687.4v-28.35H701.57z M715.75,226.77v113.39h14.17v-49.61h28.35v49.61h14.17
	V226.77H715.75z M758.27,276.38h-28.35v-35.43h7.09c11.74,0,21.26,9.52,21.26,21.26V276.38z M800.79,226.77v113.39h-14.17V226.77
	H800.79z M418.11,226.77v113.39h-14.17V262.2c0-11.74-9.52-21.26-21.26-21.26h-7.09v99.21h-14.17V226.77H418.11z M496.06,212.6
	c-39.14,0-70.87,31.73-70.87,70.87s31.73,70.87,70.87,70.87s70.87-31.73,70.87-70.87S535.2,212.6,496.06,212.6z M538.58,304.73
	c0,19.57-15.86,35.43-35.43,35.43h-14.19c-19.57,0-35.43-15.86-35.43-35.43V262.2c0-19.57,15.86-35.43,35.43-35.43h14.19
	c19.57,0,35.43,15.86,35.43,35.43V304.73z M467.72,304.72V262.2c0-11.74,9.52-21.26,21.26-21.26h14.17
	c11.74,0,21.26,9.52,21.26,21.26v42.52c0,11.74-9.52,21.26-21.26,21.26h-14.17C477.23,325.98,467.72,316.47,467.72,304.72z"/>
</svg>
