<?xml version="1.0" encoding="UTF-8"?>
<svg width="752px" height="142px" viewBox="0 0 752 142" version="1.1" xmlns="http://www.w3.org/2000/svg" xmlns:xlink="http://www.w3.org/1999/xlink">
    <title>HUMANOID AI _logo</title>
    <g id="Page-1" stroke="none" stroke-width="1" fill="none" fill-rule="evenodd">
        <g id="HUMANOID-AI-_logo" fill="#D8D8D8" fill-rule="nonzero">
            <path d="M552.75,14.17 L552.75,127.56 L588.18,127.56 C607.75,127.56 623.61,111.7 623.61,92.13 L623.61,14.18 L552.75,14.18 L552.75,14.17 Z M588.18,113.38 L566.92,113.38 L566.92,28.34 L588.18,28.34 C599.92,28.34 609.44,37.86 609.44,49.6 L609.44,92.12 C609.44,103.87 599.93,113.38 588.18,113.38 Z M56.69,14.17 L56.69,127.56 L42.52,127.56 L42.52,77.95 L35.43,77.95 C23.69,77.95 14.17,87.47 14.17,99.21 L14.17,127.56 L0,127.56 L0,14.17 L14.17,14.17 L14.17,63.78 L42.52,63.78 L42.52,14.17 L56.69,14.17 L56.69,14.17 Z M127.56,14.17 L127.56,127.56 L70.87,127.56 L70.87,14.17 L85.04,14.17 L85.04,92.12 C85.04,103.86 94.56,113.38 106.3,113.38 L113.39,113.38 L113.39,14.17 L127.56,14.17 L127.56,14.17 Z M226.77,127.56 L212.6,127.56 L212.6,49.6 C212.6,37.86 203.08,28.34 191.34,28.34 L191.34,28.34 L191.34,127.55 L177.17,127.55 L177.17,49.6 C177.17,37.86 167.65,28.34 155.91,28.34 L155.91,28.34 L155.91,127.55 L141.74,127.55 L141.74,14.17 L141.74,14.17 L141.74,14.17 L226.78,14.17 L226.77,127.56 Z M240.94,14.17 L240.94,127.56 L255.11,127.56 L255.11,77.95 L283.46,77.95 L283.46,127.56 L297.63,127.56 L297.63,14.17 L240.94,14.17 Z M283.46,63.78 L255.11,63.78 L255.11,28.35 L262.2,28.35 C273.94,28.35 283.46,37.87 283.46,49.61 L283.46,63.78 L283.46,63.78 Z M538.58,14.17 L538.58,127.56 L524.41,127.56 L524.41,14.17 L538.58,14.17 Z M651.96,56.69 L651.96,85.04 L637.79,85.04 L637.79,56.69 L651.96,56.69 Z M666.14,14.17 L666.14,127.56 L680.31,127.56 L680.31,77.95 L708.66,77.95 L708.66,127.56 L722.83,127.56 L722.83,14.17 L666.14,14.17 Z M708.66,63.78 L680.31,63.78 L680.31,28.35 L687.4,28.35 C699.14,28.35 708.66,37.87 708.66,49.61 L708.66,63.78 Z M751.18,14.17 L751.18,127.56 L737.01,127.56 L737.01,14.17 L751.18,14.17 Z M368.5,14.17 L368.5,127.56 L354.33,127.56 L354.33,49.6 C354.33,37.86 344.81,28.34 333.07,28.34 L325.98,28.34 L325.98,127.55 L311.81,127.55 L311.81,14.17 L368.5,14.17 Z M446.45,-2.84217094e-14 C407.31,-2.84217094e-14 375.58,31.73 375.58,70.87 C375.58,110.01 407.31,141.74 446.45,141.74 C485.59,141.74 517.32,110.01 517.32,70.87 C517.32,31.73 485.59,-2.84217094e-14 446.45,-2.84217094e-14 Z M488.97,92.13 C488.97,111.7 473.11,127.56 453.54,127.56 L439.35,127.56 C419.78,127.56 403.92,111.7 403.92,92.13 L403.92,49.6 C403.92,30.03 419.78,14.17 439.35,14.17 L453.54,14.17 C473.11,14.17 488.97,30.03 488.97,49.6 L488.97,92.13 Z M418.11,92.12 L418.11,49.6 C418.11,37.86 427.63,28.34 439.37,28.34 L453.54,28.34 C465.28,28.34 474.8,37.86 474.8,49.6 L474.8,92.12 C474.8,103.86 465.28,113.38 453.54,113.38 L439.37,113.38 C427.62,113.38 418.11,103.87 418.11,92.12 Z" id="Shape"></path>
        </g>
    </g>
</svg>