<?xml version="1.0" encoding="UTF-8"?>
<svg width="180px" height="41px" viewBox="0 0 180 41" version="1.1" xmlns="http://www.w3.org/2000/svg" xmlns:xlink="http://www.w3.org/1999/xlink">
    <title>yatay logo text</title>
    <g id="yatay-logo-text" stroke="none" stroke-width="1" fill="none" fill-rule="evenodd">
        <g id="logo-white" transform="translate(0.000000, 0.261962)" fill="#FFFFFF" fill-rule="nonzero">
            <g id="Group" stroke="#FFFFFF" stroke-linecap="round" stroke-linejoin="round" stroke-width="0.5">
                <polygon id="Path" points="1.05 12.33 1.05 27.66 0 27.66 0 12.33"></polygon>
                <path d="M33.14,0.08 L34.14,0.08 L34.14,27.66 L33.39,27.66 L12.79,1.8 L12.79,0.09 L33.14,25.62 L33.14,0.09 L33.14,0.08 Z M12.79,27.66 L12.79,13.83 L13.83,13.83 L13.83,27.66 L12.79,27.66 Z" id="Shape"></path>
                <path d="M45.84,0.08 L65.23,0.08 L65.23,1.08 L45.84,1.08 L45.84,0.08 Z M45.84,27.66 L45.84,13.33 L60.51,13.33 L60.51,14.37 L46.89,14.37 L46.89,27.66 L45.85,27.66 L45.84,27.66 Z" id="Shape"></path>
                <polygon id="Path" points="75.09 12.33 75.09 27.66 74.05 27.66 74.05 12.33"></polygon>
                <path d="M107.18,0.08 L108.18,0.08 L108.18,27.66 L107.43,27.66 L86.83,1.8 L86.83,0.09 L107.18,25.62 L107.18,0.09 L107.18,0.08 Z M86.83,27.66 L86.83,13.83 L87.87,13.83 L87.87,27.66 L86.83,27.66 Z" id="Shape"></path>
                <polygon id="Path" points="120.88 12.33 120.88 27.66 119.84 27.66 119.84 12.33"></polygon>
                <path d="M129.86,0 L151.92,0 L151.92,1.04 L129.86,1.04 L129.86,0 Z M140.39,13.45 L141.43,13.45 L141.43,27.66 L140.39,27.66 L140.39,13.45 L140.39,13.45 Z" id="Shape"></path>
                <path d="M157.48,0.04 L158.73,0.04 L164.08,8.23 L162.83,8.23 L157.48,0.04 Z M178.2,0.04 L179.45,0.04 L168.96,16.04 L168.96,27.61 L167.92,27.61 L167.92,15.83 L178.2,0.04 Z" id="Shape"></path>
            </g>
            <g id="Group" transform="translate(0.680000, 31.820000)">
                <g transform="translate(-0.000000, 0.000000)">
                    <path d="M2.8,0.02 L2.8,0.31 L0.42,0.31 L1.24,2.29 L0.93,2.29 L1.11022302e-16,0.02 L2.8,0.02 L2.8,0.02 Z M6.27,0.02 L6.58,0.02 L3.43,7.63 L3.13,7.63 L2.02,4.97 L2.33,4.97 L3.28,7.25 L6.27,0.02 L6.27,0.02 Z" id="Shape"></path>
                    <polygon id="Path" points="14.22 3.41 14.22 7.64 13.93 7.64 13.93 3.41"></polygon>
                    <path d="M26.91,2.07 L26.91,1.93 C26.91,1.72 26.87,1.52 26.78,1.32 C26.69,1.12 26.55,0.95 26.36,0.8 C26.17,0.65 25.93,0.52 25.65,0.43 C25.37,0.34 25.02,0.29 24.63,0.29 C24.24,0.29 23.9,0.34 23.62,0.43 C23.34,0.52 23.1,0.65 22.91,0.8 C22.72,0.95 22.58,1.13 22.49,1.32 C22.4,1.52 22.36,1.72 22.36,1.93 C22.36,2.15 22.42,2.34 22.54,2.5 C22.66,2.66 22.82,2.79 23.02,2.91 C23.22,3.03 23.45,3.13 23.71,3.21 C23.97,3.29 24.23,3.38 24.51,3.46 C24.83,3.56 25.14,3.67 25.46,3.78 C25.78,3.89 26.07,4.03 26.33,4.2 C26.59,4.37 26.8,4.58 26.96,4.82 C27.12,5.07 27.2,5.37 27.2,5.73 C27.2,6.04 27.12,6.31 26.96,6.55 C26.8,6.79 26.59,6.99 26.34,7.15 C26.08,7.31 25.79,7.43 25.47,7.52 C25.15,7.6 24.82,7.65 24.49,7.65 C24.18,7.65 23.87,7.61 23.57,7.53 C23.26,7.45 22.99,7.34 22.75,7.18 C22.51,7.02 22.31,6.82 22.16,6.59 C22.01,6.35 21.94,6.07 21.94,5.74 L21.94,5.59 L22.23,5.59 L22.23,5.74 C22.23,5.94 22.27,6.14 22.36,6.33 C22.45,6.53 22.59,6.7 22.78,6.85 C22.97,7 23.2,7.13 23.49,7.22 C23.77,7.31 24.11,7.36 24.5,7.36 C24.79,7.36 25.08,7.33 25.37,7.26 C25.66,7.19 25.92,7.09 26.15,6.95 C26.38,6.81 26.57,6.64 26.71,6.44 C26.85,6.24 26.92,6 26.92,5.74 C26.92,5.43 26.85,5.17 26.7,4.96 C26.55,4.75 26.36,4.57 26.13,4.42 C25.9,4.27 25.63,4.14 25.33,4.04 C25.03,3.94 24.73,3.84 24.42,3.75 C24.14,3.66 23.85,3.56 23.57,3.47 C23.29,3.37 23.04,3.26 22.82,3.12 C22.6,2.98 22.42,2.82 22.28,2.64 C22.14,2.45 22.07,2.22 22.07,1.94 C22.07,1.61 22.14,1.32 22.29,1.09 C22.44,0.86 22.64,0.65 22.88,0.5 C23.12,0.34 23.4,0.23 23.7,0.15 C24.01,0.07 24.32,0.03 24.62,0.03 C24.92,0.03 25.24,0.07 25.54,0.15 C25.85,0.23 26.12,0.34 26.36,0.5 C26.6,0.66 26.8,0.86 26.95,1.09 C27.1,1.33 27.18,1.61 27.18,1.94 L27.18,2.08 L26.89,2.08 L26.91,2.07 Z" id="Path"></path>
                    <path d="M40.56,0.02 L40.56,4.77 C40.56,5.16 40.49,5.53 40.34,5.88 C40.19,6.23 39.98,6.53 39.72,6.79 C39.46,7.05 39.15,7.25 38.8,7.4 C38.45,7.55 38.08,7.62 37.69,7.62 C37.3,7.62 36.93,7.55 36.58,7.4 C36.23,7.25 35.92,7.05 35.66,6.79 C35.4,6.53 35.19,6.23 35.04,5.88 C34.89,5.53 34.82,5.16 34.82,4.77 L34.82,3.4 L35.11,3.4 L35.11,4.77 C35.11,5.12 35.18,5.46 35.31,5.77 C35.44,6.09 35.63,6.36 35.86,6.59 C36.09,6.82 36.37,7.01 36.68,7.14 C36.99,7.27 37.33,7.34 37.69,7.34 C38.05,7.34 38.38,7.27 38.69,7.14 C39.01,7.01 39.28,6.82 39.51,6.59 C39.74,6.36 39.93,6.08 40.06,5.77 C40.19,5.45 40.26,5.12 40.26,4.77 L40.26,0.02 L40.55,0.02 L40.56,0.02 Z" id="Path"></path>
                    <path d="M51,0 L54.52,7.66 L47.5,7.66 L51.01,0 L51,0 Z M51,2.84 L53.09,7.37 L54.08,7.37 L51,0.69 L47.94,7.37 L48.92,7.37 L51,2.84 L51,2.84 Z M51.74,7.37 L52.78,7.37 L51,3.52 L49.24,7.37 L50.28,7.37 L51.01,5.78 L51.75,7.37 L51.74,7.37 Z M50.59,7.37 L51.43,7.37 L51,6.46 L50.58,7.37 L50.59,7.37 Z" id="Shape"></path>
                    <path d="M62.17,0.02 L62.17,7.64 L61.88,7.64 L61.88,0.02 L62.17,0.02 Z M63.74,7.35 L66.54,7.35 L66.54,7.64 L63.74,7.64 L63.74,7.35 Z" id="Shape"></path>
                </g>
                <g transform="translate(109.030000, 0.000000)">
                    <path d="M4.97,2.07 L4.97,1.93 C4.97,1.72 4.93,1.52 4.84,1.32 C4.75,1.12 4.61,0.95 4.42,0.8 C4.23,0.65 3.99,0.52 3.71,0.43 C3.42,0.34 3.08,0.29 2.69,0.29 C2.3,0.29 1.96,0.34 1.68,0.43 C1.4,0.52 1.16,0.65 0.97,0.8 C0.78,0.95 0.64,1.13 0.55,1.32 C0.46,1.52 0.42,1.72 0.42,1.93 C0.42,2.15 0.48,2.34 0.6,2.5 C0.72,2.66 0.88,2.79 1.08,2.91 C1.28,3.03 1.51,3.13 1.77,3.21 C2.03,3.29 2.29,3.38 2.57,3.46 C2.89,3.56 3.2,3.67 3.52,3.78 C3.84,3.89 4.13,4.03 4.39,4.2 C4.65,4.37 4.86,4.58 5.02,4.82 C5.18,5.07 5.26,5.37 5.26,5.73 C5.26,6.04 5.18,6.31 5.02,6.55 C4.86,6.79 4.65,6.99 4.4,7.15 C4.14,7.31 3.85,7.43 3.53,7.52 C3.21,7.6 2.88,7.65 2.55,7.65 C2.24,7.65 1.93,7.61 1.63,7.53 C1.32,7.45 1.05,7.34 0.81,7.18 C0.57,7.02 0.37,6.82 0.22,6.59 C0.07,6.35 -1.42108547e-14,6.07 -1.42108547e-14,5.74 L-1.42108547e-14,5.59 L0.29,5.59 L0.29,5.74 C0.29,5.94 0.33,6.14 0.42,6.33 C0.51,6.53 0.65,6.7 0.84,6.85 C1.03,7 1.26,7.13 1.55,7.22 C1.83,7.31 2.17,7.36 2.56,7.36 C2.85,7.36 3.14,7.33 3.43,7.26 C3.72,7.19 3.98,7.09 4.21,6.95 C4.44,6.81 4.63,6.64 4.77,6.44 C4.91,6.24 4.98,6 4.98,5.74 C4.98,5.43 4.91,5.17 4.76,4.96 C4.61,4.75 4.42,4.57 4.19,4.42 C3.96,4.27 3.69,4.14 3.39,4.04 C3.09,3.94 2.79,3.84 2.48,3.75 C2.2,3.66 1.91,3.56 1.63,3.47 C1.35,3.37 1.1,3.26 0.88,3.12 C0.66,2.98 0.48,2.82 0.34,2.64 C0.2,2.45 0.13,2.22 0.13,1.94 C0.13,1.61 0.2,1.32 0.35,1.09 C0.5,0.85 0.7,0.65 0.94,0.5 C1.18,0.34 1.46,0.23 1.76,0.15 C2.07,0.07 2.38,0.03 2.68,0.03 C2.98,0.03 3.3,0.07 3.6,0.15 C3.91,0.23 4.18,0.34 4.42,0.5 C4.66,0.66 4.86,0.86 5.01,1.09 C5.16,1.33 5.24,1.61 5.24,1.94 L5.24,2.08 L4.95,2.08 L4.97,2.07 Z" id="Path"></path>
                    <path d="M12.22,0.01 L18.31,0.01 L18.31,0.3 L12.22,0.3 L12.22,0.01 Z M15.13,3.72 L15.42,3.72 L15.42,7.64 L15.13,7.64 L15.13,3.72 Z" id="Shape"></path>
                    <path d="M31.44,0.02 L31.44,4.77 C31.44,5.16 31.37,5.53 31.22,5.88 C31.07,6.23 30.86,6.53 30.6,6.79 C30.34,7.05 30.03,7.25 29.68,7.4 C29.33,7.55 28.96,7.62 28.57,7.62 C28.18,7.62 27.81,7.55 27.46,7.4 C27.11,7.25 26.8,7.05 26.54,6.79 C26.28,6.53 26.07,6.23 25.92,5.88 C25.77,5.53 25.7,5.16 25.7,4.77 L25.7,3.4 L25.99,3.4 L25.99,4.77 C25.99,5.12 26.06,5.46 26.19,5.77 C26.32,6.09 26.51,6.36 26.74,6.59 C26.97,6.82 27.25,7.01 27.56,7.14 C27.87,7.27 28.21,7.34 28.57,7.34 C28.93,7.34 29.26,7.27 29.57,7.14 C29.89,7.01 30.16,6.82 30.39,6.59 C30.62,6.36 30.81,6.08 30.94,5.77 C31.07,5.45 31.14,5.12 31.14,4.77 L31.14,0.02 L31.43,0.02 L31.44,0.02 Z" id="Path"></path>
                    <path d="M43.47,0.32 C43.93,0.52 44.33,0.79 44.68,1.14 C45.03,1.49 45.3,1.89 45.5,2.35 C45.7,2.81 45.8,3.31 45.8,3.84 C45.8,4.37 45.7,4.85 45.5,5.32 C45.3,5.78 45.03,6.19 44.68,6.53 C44.33,6.88 43.93,7.15 43.47,7.35 C43.01,7.55 42.51,7.65 41.98,7.65 L39.59,7.65 L39.59,3.67 L39.88,3.67 L39.88,7.36 L41.98,7.36 C42.46,7.36 42.92,7.27 43.35,7.08 C43.78,6.9 44.16,6.64 44.47,6.32 C44.79,6 45.04,5.63 45.23,5.2 C45.41,4.77 45.51,4.32 45.51,3.83 C45.51,3.34 45.42,2.89 45.23,2.46 C45.05,2.03 44.79,1.65 44.47,1.34 C44.15,1.02 43.78,0.77 43.35,0.58 C42.92,0.4 42.46,0.3 41.98,0.3 L39.59,0.3 L39.59,0.01 L41.98,0.01 C42.51,0.01 43.01,0.11 43.47,0.31 L43.47,0.32 Z" id="Path"></path>
                    <polygon id="Path" points="53.86 3.41 53.86 7.64 53.57 7.64 53.57 3.41"></polygon>
                    <path d="M65.25,0 C65.78,0 66.28,0.1 66.74,0.3 C67.21,0.5 67.61,0.77 67.96,1.12 C68.31,1.47 68.58,1.87 68.78,2.34 C68.98,2.81 69.08,3.3 69.08,3.83 C69.08,4.36 68.98,4.86 68.78,5.32 C68.58,5.79 68.31,6.19 67.96,6.54 C67.61,6.89 67.21,7.16 66.74,7.36 C66.27,7.56 65.78,7.66 65.25,7.66 C64.72,7.66 64.22,7.56 63.76,7.36 C63.29,7.16 62.89,6.89 62.54,6.54 C62.19,6.19 61.92,5.78 61.72,5.32 C61.52,4.85 61.42,4.36 61.42,3.83 C61.42,3.3 61.52,2.8 61.72,2.34 C61.92,1.87 62.19,1.47 62.54,1.12 C62.89,0.77 63.29,0.5 63.76,0.3 C64.23,0.1 64.72,0 65.25,0 Z M65.25,7.38 C65.74,7.38 66.2,7.29 66.63,7.1 C67.06,6.92 67.44,6.66 67.76,6.34 C68.08,6.02 68.34,5.64 68.52,5.21 C68.7,4.78 68.8,4.32 68.8,3.83 C68.8,3.34 68.71,2.89 68.52,2.46 C68.34,2.03 68.08,1.65 67.76,1.33 C67.44,1.01 67.06,0.75 66.63,0.57 C66.2,0.39 65.74,0.29 65.25,0.29 C64.76,0.29 64.31,0.38 63.88,0.57 C63.45,0.75 63.07,1.01 62.75,1.33 C62.43,1.65 62.17,2.03 61.99,2.46 C61.81,2.89 61.71,3.35 61.71,3.83 C61.71,4.31 61.8,4.78 61.99,5.21 C62.17,5.64 62.43,6.02 62.75,6.34 C63.07,6.66 63.45,6.92 63.88,7.1 C64.31,7.28 64.77,7.38 65.25,7.38 Z M65.25,1.42 C65.58,1.42 65.89,1.48 66.18,1.61 C66.47,1.74 66.73,1.91 66.95,2.13 C67.17,2.35 67.34,2.6 67.47,2.9 C67.6,3.19 67.66,3.5 67.66,3.83 C67.66,4.16 67.6,4.48 67.47,4.78 C67.34,5.07 67.17,5.33 66.95,5.54 C66.73,5.76 66.48,5.93 66.18,6.05 C65.89,6.18 65.58,6.24 65.25,6.24 C64.92,6.24 64.61,6.18 64.32,6.05 C64.03,5.92 63.77,5.75 63.55,5.54 C63.33,5.32 63.16,5.07 63.03,4.78 C62.9,4.49 62.84,4.17 62.84,3.83 C62.84,3.49 62.9,3.19 63.03,2.9 C63.16,2.61 63.33,2.35 63.55,2.13 C63.77,1.91 64.02,1.74 64.32,1.61 C64.61,1.48 64.92,1.42 65.25,1.42 Z M65.25,5.96 C65.54,5.96 65.82,5.9 66.08,5.79 C66.34,5.68 66.57,5.53 66.76,5.33 C66.95,5.13 67.1,4.91 67.22,4.65 C67.33,4.39 67.39,4.11 67.39,3.82 C67.39,3.53 67.33,3.25 67.22,3 C67.11,2.74 66.96,2.52 66.76,2.33 C66.57,2.14 66.34,1.99 66.08,1.87 C65.82,1.76 65.54,1.7 65.25,1.7 C64.96,1.7 64.68,1.76 64.43,1.87 C64.18,1.98 63.95,2.13 63.76,2.33 C63.57,2.53 63.42,2.75 63.3,3 C63.19,3.26 63.13,3.53 63.13,3.82 C63.13,4.11 63.19,4.39 63.3,4.65 C63.41,4.91 63.56,5.14 63.76,5.33 C63.95,5.52 64.18,5.67 64.43,5.79 C64.68,5.91 64.96,5.96 65.25,5.96 Z M65.25,2.9 C65.5,2.9 65.72,2.99 65.91,3.17 C66.09,3.35 66.19,3.57 66.19,3.82 C66.19,4.07 66.1,4.3 65.91,4.48 C65.73,4.66 65.51,4.75 65.25,4.75 C64.99,4.75 64.78,4.66 64.6,4.48 C64.42,4.3 64.33,4.08 64.33,3.82 C64.33,3.56 64.42,3.35 64.6,3.17 C64.78,2.99 65,2.9 65.25,2.9 Z M65.25,4.47 C65.43,4.47 65.58,4.41 65.71,4.28 C65.84,4.15 65.9,4 65.9,3.82 C65.9,3.64 65.84,3.49 65.71,3.37 C65.58,3.25 65.43,3.19 65.25,3.19 C65.07,3.19 64.92,3.25 64.8,3.37 C64.68,3.49 64.62,3.64 64.62,3.82 C64.62,4 64.68,4.15 64.8,4.28 C64.92,4.41 65.07,4.47 65.25,4.47 Z" id="Shape"></path>
                </g>
                <g transform="translate(80.480000, 1.540000)" id="Shape" stroke="#FFFFFF" stroke-linecap="round" stroke-linejoin="round" stroke-width="0.84">
                    <path d="M0,-5.55111512e-17 L4.65,-5.55111512e-17 L4.65,0.24 L0,0.24 L0,-5.55111512e-17 Z M0,6.62 L0,3.18 L3.52,3.18 L3.52,3.43 L0.25,3.43 L0.25,6.62 L0,6.62 Z"></path>
                    <path d="M14.47,0 L11.98,3.3 L14.47,6.6 L14.16,6.6 L11.82,3.51 L9.49,6.6 L9.18,6.6 L11.67,3.3 L11.82,3.09 L14.16,0 L14.47,0 Z M10.98,1.97 L10.67,1.97 L9.19,0 L9.5,0 L10.98,1.97 Z"></path>
                </g>
            </g>
        </g>
    </g>
</svg>